<?xml version="1.0" standalone="no"?>
<!DOCTYPE svg PUBLIC "-//W3C//DTD SVG 20010904//EN"
 "http://www.w3.org/TR/2001/REC-SVG-20010904/DTD/svg10.dtd">
<svg version="1.0" xmlns="http://www.w3.org/2000/svg"
 width="256.000000pt" height="256.000000pt" viewBox="0 0 256.000000 256.000000"
 preserveAspectRatio="xMidYMid meet">

<g transform="translate(0.000000,256.000000) scale(0.100000,-0.100000)"
fill="#000000" stroke="none">
<path d="M1012 2427 c-46 -15 -105 -75 -120 -123 -9 -30 -12 -153 -12 -433 l0
-391 -154 0 c-161 0 -200 -7 -252 -46 -67 -49 -68 -59 -74 -469 l-5 -370 -28
-60 c-22 -47 -60 -92 -177 -210 -83 -83 -150 -158 -150 -166 0 -8 5 -20 12
-27 17 -17 1513 -17 1570 0 52 15 111 74 126 124 9 30 12 161 12 473 l0 431
368 0 c378 0 392 1 392 39 0 8 -67 83 -150 166 -117 118 -155 163 -177 210
l-28 60 -5 330 c-4 220 -9 339 -17 357 -19 42 -76 93 -120 106 -53 16 -961 15
-1011 -1z m620 -547 c48 -107 88 -198 88 -201 0 -3 -6 -13 -13 -24 -25 -33
-62 -13 -87 50 l-22 55 -82 0 -81 0 -18 -44 c-28 -68 -40 -80 -70 -72 -20 5
-27 13 -27 31 0 28 156 386 173 398 37 23 51 4 139 -193z m-12 -496 c62 -37
60 -22 60 -584 0 -562 2 -547 -60 -584 -25 -14 -99 -16 -736 -16 l-707 0 115
118 c118 120 156 179 177 273 6 25 11 191 11 382 0 294 2 343 16 366 37 62 19
60 582 61 458 0 517 -2 542 -16z"/>
<path d="M1492 1885 l-22 -45 45 0 45 0 -15 38 c-24 55 -29 56 -53 7z"/>
<path d="M1052 1148 c-7 -7 -12 -33 -12 -60 l0 -47 -131 -3 c-113 -3 -133 -6
-143 -20 -8 -13 -8 -23 0 -35 10 -16 36 -18 273 -21 l262 -2 -31 -58 c-34 -65
-107 -156 -157 -197 l-33 -27 -32 28 c-18 15 -50 46 -71 70 -39 45 -63 54 -85
32 -23 -23 -12 -45 54 -113 50 -52 63 -70 53 -77 -8 -5 -57 -29 -109 -54 -129
-62 -125 -59 -128 -78 -5 -21 15 -46 37 -46 20 0 211 92 252 120 l29 21 29
-21 c41 -28 232 -120 252 -120 37 0 51 54 19 70 -8 5 -63 32 -122 60 -60 29
-108 55 -108 57 0 2 25 29 56 59 66 66 141 178 174 259 35 86 31 89 -129 93
l-131 3 0 47 c0 50 -12 72 -40 72 -9 0 -21 -5 -28 -12z"/>
<path d="M663 2262 c-49 -31 -57 -46 -43 -73 15 -26 37 -24 93 11 47 30 58 55
35 78 -18 18 -39 14 -85 -16z"/>
<path d="M472 2107 c-46 -47 -52 -71 -22 -87 25 -14 47 -3 89 45 35 41 37 48
15 69 -23 24 -36 20 -82 -27z"/>
<path d="M327 1938 c-45 -60 -49 -74 -29 -98 24 -30 51 -16 86 44 31 52 30 50
10 70 -23 24 -40 20 -67 -16z"/>
<path d="M223 1748 c-6 -7 -18 -34 -28 -60 -14 -39 -15 -51 -5 -63 30 -36 64
-11 91 67 10 30 10 40 0 52 -16 19 -45 21 -58 4z"/>
<path d="M152 1517 c-6 -7 -14 -38 -18 -69 -6 -51 -5 -57 16 -68 18 -9 25 -9
40 5 22 20 36 111 19 131 -14 18 -43 18 -57 1z"/>
<path d="M130 1275 c-18 -22 -7 -115 15 -131 13 -9 23 -10 36 -3 15 8 19 21
19 67 0 32 -5 63 -12 70 -16 16 -43 15 -58 -3z"/>
<path d="M165 1044 c-17 -18 -14 -51 11 -111 14 -36 43 -44 64 -18 18 21 -6
122 -31 136 -23 12 -25 12 -44 -7z"/>
<path d="M2340 1025 c-18 -47 -17 -106 3 -119 27 -17 49 4 63 59 15 58 5 85
-32 85 -17 0 -27 -8 -34 -25z"/>
<path d="M240 810 c-8 -15 -5 -30 15 -70 28 -55 48 -69 74 -53 26 16 23 45 -9
96 -33 51 -62 61 -80 27z"/>
<path d="M2292 823 c-7 -3 -24 -27 -38 -55 -30 -60 -25 -91 14 -86 29 3 72 65
72 105 0 24 -26 43 -48 36z"/>
<path d="M2135 578 c-43 -51 -45 -91 -5 -96 20 -2 33 6 58 37 34 42 40 69 20
89 -20 20 -35 14 -73 -30z"/>
<path d="M1961 402 c-35 -31 -42 -43 -37 -60 12 -38 43 -37 91 3 45 37 55 61
33 83 -20 20 -41 13 -87 -26z"/>
</g>
</svg>
